<svg id="visual" viewBox="0 0 900 450" width="900" height="450" xmlns="http://www.w3.org/2000/svg" xmlns:xlink="http://www.w3.org/1999/xlink" version="1.1"><path d="M0 321L15 317.7C30 314.3 60 307.7 90 307.2C120 306.7 150 312.3 180 312.8C210 313.3 240 308.7 270 297.5C300 286.3 330 268.7 360 263.5C390 258.3 420 265.7 450 283.2C480 300.7 510 328.3 540 324.5C570 320.7 600 285.3 630 269.7C660 254 690 258 720 265C750 272 780 282 810 294.3C840 306.7 870 321.3 885 328.7L900 336L900 451L885 451C870 451 840 451 810 451C780 451 750 451 720 451C690 451 660 451 630 451C600 451 570 451 540 451C510 451 480 451 450 451C420 451 390 451 360 451C330 451 300 451 270 451C240 451 210 451 180 451C150 451 120 451 90 451C60 451 30 451 15 451L0 451Z" fill="#69fae0"></path><path d="M0 372L15 363.5C30 355 60 338 90 325.3C120 312.7 150 304.3 180 309.3C210 314.3 240 332.7 270 334.8C300 337 330 323 360 323C390 323 420 337 450 335.3C480 333.7 510 316.3 540 305.2C570 294 600 289 630 290.2C660 291.3 690 298.7 720 313.2C750 327.7 780 349.3 810 356.3C840 363.3 870 355.7 885 351.8L900 348L900 451L885 451C870 451 840 451 810 451C780 451 750 451 720 451C690 451 660 451 630 451C600 451 570 451 540 451C510 451 480 451 450 451C420 451 390 451 360 451C330 451 300 451 270 451C240 451 210 451 180 451C150 451 120 451 90 451C60 451 30 451 15 451L0 451Z" fill="#51e9dc"></path><path d="M0 363L15 365.2C30 367.3 60 371.7 90 364C120 356.3 150 336.7 180 331.7C210 326.7 240 336.3 270 348C300 359.7 330 373.3 360 379.5C390 385.7 420 384.3 450 378.7C480 373 510 363 540 355C570 347 600 341 630 338C660 335 690 335 720 343.8C750 352.7 780 370.3 810 374.3C840 378.3 870 368.7 885 363.8L900 359L900 451L885 451C870 451 840 451 810 451C780 451 750 451 720 451C690 451 660 451 630 451C600 451 570 451 540 451C510 451 480 451 450 451C420 451 390 451 360 451C330 451 300 451 270 451C240 451 210 451 180 451C150 451 120 451 90 451C60 451 30 451 15 451L0 451Z" fill="#3cd7d7"></path><path d="M0 396L15 393.7C30 391.3 60 386.7 90 385.8C120 385 150 388 180 390.8C210 393.7 240 396.3 270 395.8C300 395.3 330 391.7 360 384.5C390 377.3 420 366.7 450 363.8C480 361 510 366 540 374.2C570 382.3 600 393.7 630 391C660 388.3 690 371.7 720 372.2C750 372.7 780 390.3 810 400.2C840 410 870 412 885 413L900 414L900 451L885 451C870 451 840 451 810 451C780 451 750 451 720 451C690 451 660 451 630 451C600 451 570 451 540 451C510 451 480 451 450 451C420 451 390 451 360 451C330 451 300 451 270 451C240 451 210 451 180 451C150 451 120 451 90 451C60 451 30 451 15 451L0 451Z" fill="#2cc5d0"></path><path d="M0 417L15 421C30 425 60 433 90 429.7C120 426.3 150 411.7 180 405C210 398.3 240 399.7 270 402.8C300 406 330 411 360 412.8C390 414.7 420 413.3 450 415.2C480 417 510 422 540 420C570 418 600 409 630 410.7C660 412.3 690 424.7 720 430C750 435.3 780 433.7 810 427.2C840 420.7 870 409.3 885 403.7L900 398L900 451L885 451C870 451 840 451 810 451C780 451 750 451 720 451C690 451 660 451 630 451C600 451 570 451 540 451C510 451 480 451 450 451C420 451 390 451 360 451C330 451 300 451 270 451C240 451 210 451 180 451C150 451 120 451 90 451C60 451 30 451 15 451L0 451Z" fill="#24b3c7"></path></svg>