<svg id="visual" viewBox="0 0 900 200" width="900" height="200" xmlns="http://www.w3.org/2000/svg" xmlns:xlink="http://www.w3.org/1999/xlink" version="1.1"><path d="M0 90L15 77.8C30 65.7 60 41.3 90 37.5C120 33.7 150 50.3 180 65.5C210 80.7 240 94.3 270 97.7C300 101 330 94 360 90C390 86 420 85 450 82.7C480 80.3 510 76.7 540 77.3C570 78 600 83 630 88.7C660 94.3 690 100.7 720 93.7C750 86.7 780 66.3 810 66.3C840 66.3 870 86.7 885 96.8L900 107L900 201L885 201C870 201 840 201 810 201C780 201 750 201 720 201C690 201 660 201 630 201C600 201 570 201 540 201C510 201 480 201 450 201C420 201 390 201 360 201C330 201 300 201 270 201C240 201 210 201 180 201C150 201 120 201 90 201C60 201 30 201 15 201L0 201Z" fill="#69fae0"></path><path d="M0 136L15 134C30 132 60 128 90 123.7C120 119.3 150 114.7 180 101.7C210 88.7 240 67.3 270 68.2C300 69 330 92 360 104.5C390 117 420 119 450 108.3C480 97.7 510 74.3 540 62.3C570 50.3 600 49.7 630 59.3C660 69 690 89 720 95.3C750 101.7 780 94.3 810 86.5C840 78.7 870 70.3 885 66.2L900 62L900 201L885 201C870 201 840 201 810 201C780 201 750 201 720 201C690 201 660 201 630 201C600 201 570 201 540 201C510 201 480 201 450 201C420 201 390 201 360 201C330 201 300 201 270 201C240 201 210 201 180 201C150 201 120 201 90 201C60 201 30 201 15 201L0 201Z" fill="#51e9dc"></path><path d="M0 97L15 94.5C30 92 60 87 90 85.2C120 83.3 150 84.7 180 95.8C210 107 240 128 270 133C300 138 330 127 360 121.7C390 116.3 420 116.7 450 113.7C480 110.7 510 104.3 540 109.8C570 115.3 600 132.7 630 135.8C660 139 690 128 720 121.2C750 114.3 780 111.7 810 113C840 114.3 870 119.7 885 122.3L900 125L900 201L885 201C870 201 840 201 810 201C780 201 750 201 720 201C690 201 660 201 630 201C600 201 570 201 540 201C510 201 480 201 450 201C420 201 390 201 360 201C330 201 300 201 270 201C240 201 210 201 180 201C150 201 120 201 90 201C60 201 30 201 15 201L0 201Z" fill="#3cd7d7"></path><path d="M0 131L15 137.8C30 144.7 60 158.3 90 157.2C120 156 150 140 180 137.8C210 135.7 240 147.3 270 148.7C300 150 330 141 360 136.7C390 132.3 420 132.7 450 135.7C480 138.7 510 144.3 540 147.7C570 151 600 152 630 145.8C660 139.7 690 126.3 720 124.2C750 122 780 131 810 133.5C840 136 870 132 885 130L900 128L900 201L885 201C870 201 840 201 810 201C780 201 750 201 720 201C690 201 660 201 630 201C600 201 570 201 540 201C510 201 480 201 450 201C420 201 390 201 360 201C330 201 300 201 270 201C240 201 210 201 180 201C150 201 120 201 90 201C60 201 30 201 15 201L0 201Z" fill="#2cc5d0"></path><path d="M0 158L15 156.7C30 155.3 60 152.7 90 157C120 161.3 150 172.7 180 175.8C210 179 240 174 270 172.5C300 171 330 173 360 172.3C390 171.7 420 168.3 450 170.5C480 172.7 510 180.3 540 184C570 187.7 600 187.3 630 183.8C660 180.3 690 173.7 720 173.7C750 173.7 780 180.3 810 178.2C840 176 870 165 885 159.5L900 154L900 201L885 201C870 201 840 201 810 201C780 201 750 201 720 201C690 201 660 201 630 201C600 201 570 201 540 201C510 201 480 201 450 201C420 201 390 201 360 201C330 201 300 201 270 201C240 201 210 201 180 201C150 201 120 201 90 201C60 201 30 201 15 201L0 201Z" fill="#24b3c7"></path></svg>