<svg id="visual" viewBox="0 0 900 200" width="900" height="200" xmlns="http://www.w3.org/2000/svg" xmlns:xlink="http://www.w3.org/1999/xlink" version="1.1"><path d="M0 111L15 120.5C30 130 60 149 90 148.5C120 148 150 128 180 115.3C210 102.7 240 97.3 270 109.3C300 121.3 330 150.7 360 164C390 177.3 420 174.7 450 165.8C480 157 510 142 540 126.5C570 111 600 95 630 101.2C660 107.3 690 135.7 720 143C750 150.3 780 136.7 810 134.8C840 133 870 143 885 148L900 153L900 0L885 0C870 0 840 0 810 0C780 0 750 0 720 0C690 0 660 0 630 0C600 0 570 0 540 0C510 0 480 0 450 0C420 0 390 0 360 0C330 0 300 0 270 0C240 0 210 0 180 0C150 0 120 0 90 0C60 0 30 0 15 0L0 0Z" fill="#69fae0"></path><path d="M0 150L15 150.3C30 150.7 60 151.3 90 148.8C120 146.3 150 140.7 180 128C210 115.3 240 95.7 270 95C300 94.3 330 112.7 360 121.3C390 130 420 129 450 129.5C480 130 510 132 540 126.3C570 120.7 600 107.3 630 107.8C660 108.3 690 122.7 720 118.7C750 114.7 780 92.3 810 81C840 69.7 870 69.3 885 69.2L900 69L900 0L885 0C870 0 840 0 810 0C780 0 750 0 720 0C690 0 660 0 630 0C600 0 570 0 540 0C510 0 480 0 450 0C420 0 390 0 360 0C330 0 300 0 270 0C240 0 210 0 180 0C150 0 120 0 90 0C60 0 30 0 15 0L0 0Z" fill="#51e9dc"></path><path d="M0 114L15 114.7C30 115.3 60 116.7 90 104.8C120 93 150 68 180 63.8C210 59.7 240 76.3 270 89.3C300 102.3 330 111.7 360 112.5C390 113.3 420 105.7 450 95.5C480 85.3 510 72.7 540 67.2C570 61.7 600 63.3 630 69.2C660 75 690 85 720 90C750 95 780 95 810 88.3C840 81.7 870 68.3 885 61.7L900 55L900 0L885 0C870 0 840 0 810 0C780 0 750 0 720 0C690 0 660 0 630 0C600 0 570 0 540 0C510 0 480 0 450 0C420 0 390 0 360 0C330 0 300 0 270 0C240 0 210 0 180 0C150 0 120 0 90 0C60 0 30 0 15 0L0 0Z" fill="#3cd7d7"></path><path d="M0 33L15 39.7C30 46.3 60 59.7 90 62.7C120 65.7 150 58.3 180 60C210 61.7 240 72.3 270 70.8C300 69.3 330 55.7 360 48.2C390 40.7 420 39.3 450 37.8C480 36.3 510 34.7 540 39.5C570 44.3 600 55.7 630 62C660 68.3 690 69.7 720 71.8C750 74 780 77 810 70.2C840 63.3 870 46.7 885 38.3L900 30L900 0L885 0C870 0 840 0 810 0C780 0 750 0 720 0C690 0 660 0 630 0C600 0 570 0 540 0C510 0 480 0 450 0C420 0 390 0 360 0C330 0 300 0 270 0C240 0 210 0 180 0C150 0 120 0 90 0C60 0 30 0 15 0L0 0Z" fill="#2cc5d0"></path><path d="M0 18L15 20.7C30 23.3 60 28.7 90 33.5C120 38.3 150 42.7 180 41.3C210 40 240 33 270 34C300 35 330 44 360 44C390 44 420 35 450 29.8C480 24.7 510 23.3 540 26.3C570 29.3 600 36.7 630 36.7C660 36.7 690 29.3 720 26.3C750 23.3 780 24.7 810 30.3C840 36 870 46 885 51L900 56L900 0L885 0C870 0 840 0 810 0C780 0 750 0 720 0C690 0 660 0 630 0C600 0 570 0 540 0C510 0 480 0 450 0C420 0 390 0 360 0C330 0 300 0 270 0C240 0 210 0 180 0C150 0 120 0 90 0C60 0 30 0 15 0L0 0Z" fill="#24b3c7"></path></svg>