<svg id="visual" viewBox="0 0 900 200" width="900" height="200" xmlns="http://www.w3.org/2000/svg" xmlns:xlink="http://www.w3.org/1999/xlink" version="1.1"><path d="M0 87L15 77.5C30 68 60 49 90 49.5C120 50 150 70 180 82.7C210 95.3 240 100.7 270 88.7C300 76.7 330 47.3 360 34C390 20.7 420 23.3 450 32.2C480 41 510 56 540 71.5C570 87 600 103 630 96.8C660 90.7 690 62.3 720 55C750 47.7 780 61.3 810 63.2C840 65 870 55 885 50L900 45L900 201L885 201C870 201 840 201 810 201C780 201 750 201 720 201C690 201 660 201 630 201C600 201 570 201 540 201C510 201 480 201 450 201C420 201 390 201 360 201C330 201 300 201 270 201C240 201 210 201 180 201C150 201 120 201 90 201C60 201 30 201 15 201L0 201Z" fill="#69fae0"></path><path d="M0 48L15 47.7C30 47.3 60 46.7 90 49.2C120 51.7 150 57.3 180 70C210 82.7 240 102.3 270 103C300 103.7 330 85.3 360 76.7C390 68 420 69 450 68.5C480 68 510 66 540 71.7C570 77.3 600 90.7 630 90.2C660 89.7 690 75.3 720 79.3C750 83.3 780 105.7 810 117C840 128.3 870 128.7 885 128.8L900 129L900 201L885 201C870 201 840 201 810 201C780 201 750 201 720 201C690 201 660 201 630 201C600 201 570 201 540 201C510 201 480 201 450 201C420 201 390 201 360 201C330 201 300 201 270 201C240 201 210 201 180 201C150 201 120 201 90 201C60 201 30 201 15 201L0 201Z" fill="#51e9dc"></path><path d="M0 84L15 83.3C30 82.7 60 81.3 90 93.2C120 105 150 130 180 134.2C210 138.3 240 121.7 270 108.7C300 95.7 330 86.3 360 85.5C390 84.7 420 92.3 450 102.5C480 112.7 510 125.3 540 130.8C570 136.3 600 134.7 630 128.8C660 123 690 113 720 108C750 103 780 103 810 109.7C840 116.3 870 129.7 885 136.3L900 143L900 201L885 201C870 201 840 201 810 201C780 201 750 201 720 201C690 201 660 201 630 201C600 201 570 201 540 201C510 201 480 201 450 201C420 201 390 201 360 201C330 201 300 201 270 201C240 201 210 201 180 201C150 201 120 201 90 201C60 201 30 201 15 201L0 201Z" fill="#3cd7d7"></path><path d="M0 165L15 158.3C30 151.7 60 138.3 90 135.3C120 132.3 150 139.7 180 138C210 136.3 240 125.7 270 127.2C300 128.7 330 142.3 360 149.8C390 157.3 420 158.7 450 160.2C480 161.7 510 163.3 540 158.5C570 153.7 600 142.3 630 136C660 129.7 690 128.3 720 126.2C750 124 780 121 810 127.8C840 134.7 870 151.3 885 159.7L900 168L900 201L885 201C870 201 840 201 810 201C780 201 750 201 720 201C690 201 660 201 630 201C600 201 570 201 540 201C510 201 480 201 450 201C420 201 390 201 360 201C330 201 300 201 270 201C240 201 210 201 180 201C150 201 120 201 90 201C60 201 30 201 15 201L0 201Z" fill="#2cc5d0"></path><path d="M0 180L15 177.3C30 174.7 60 169.3 90 164.5C120 159.7 150 155.3 180 156.7C210 158 240 165 270 164C300 163 330 154 360 154C390 154 420 163 450 168.2C480 173.3 510 174.7 540 171.7C570 168.7 600 161.3 630 161.3C660 161.3 690 168.7 720 171.7C750 174.7 780 173.3 810 167.7C840 162 870 152 885 147L900 142L900 201L885 201C870 201 840 201 810 201C780 201 750 201 720 201C690 201 660 201 630 201C600 201 570 201 540 201C510 201 480 201 450 201C420 201 390 201 360 201C330 201 300 201 270 201C240 201 210 201 180 201C150 201 120 201 90 201C60 201 30 201 15 201L0 201Z" fill="#24b3c7"></path></svg>