<svg id="visual" viewBox="0 0 960 540" width="960" height="540" xmlns="http://www.w3.org/2000/svg" xmlns:xlink="http://www.w3.org/1999/xlink" version="1.1"><path d="M0 385L16 381C32 377 64 369 96 368.5C128 368 160 375 192 375.7C224 376.3 256 370.7 288 357.3C320 344 352 323 384 316.8C416 310.7 448 319.3 480 340.2C512 361 544 394 576 389.3C608 384.7 640 342.3 672 323.5C704 304.7 736 309.3 768 317.8C800 326.3 832 338.7 864 353.5C896 368.3 928 385.7 944 394.3L960 403L960 541L944 541C928 541 896 541 864 541C832 541 800 541 768 541C736 541 704 541 672 541C640 541 608 541 576 541C544 541 512 541 480 541C448 541 416 541 384 541C352 541 320 541 288 541C256 541 224 541 192 541C160 541 128 541 96 541C64 541 32 541 16 541L0 541Z" fill="#69fae0"></path><path d="M0 447L16 436.7C32 426.3 64 405.7 96 390.5C128 375.3 160 365.7 192 371.7C224 377.7 256 399.3 288 401.8C320 404.3 352 387.7 384 387.7C416 387.7 448 404.3 480 402.3C512 400.3 544 379.7 576 366.3C608 353 640 347 672 348.3C704 349.7 736 358.3 768 375.8C800 393.3 832 419.7 864 428.2C896 436.7 928 427.3 944 422.7L960 418L960 541L944 541C928 541 896 541 864 541C832 541 800 541 768 541C736 541 704 541 672 541C640 541 608 541 576 541C544 541 512 541 480 541C448 541 416 541 384 541C352 541 320 541 288 541C256 541 224 541 192 541C160 541 128 541 96 541C64 541 32 541 16 541L0 541Z" fill="#51e9dc"></path><path d="M0 436L16 438.5C32 441 64 446 96 436.8C128 427.7 160 404.3 192 398.5C224 392.7 256 404.3 288 418.2C320 432 352 448 384 455.2C416 462.3 448 460.7 480 454C512 447.3 544 435.7 576 426.2C608 416.7 640 409.3 672 405.7C704 402 736 402 768 412.7C800 423.3 832 444.7 864 449.3C896 454 928 442 944 436L960 430L960 541L944 541C928 541 896 541 864 541C832 541 800 541 768 541C736 541 704 541 672 541C640 541 608 541 576 541C544 541 512 541 480 541C448 541 416 541 384 541C352 541 320 541 288 541C256 541 224 541 192 541C160 541 128 541 96 541C64 541 32 541 16 541L0 541Z" fill="#3cd7d7"></path><path d="M0 476L16 473C32 470 64 464 96 462.8C128 461.7 160 465.3 192 469C224 472.7 256 476.3 288 475.8C320 475.3 352 470.7 384 462C416 453.3 448 440.7 480 437.2C512 433.7 544 439.3 576 449C608 458.7 640 472.3 672 469.2C704 466 736 446 768 446.7C800 447.3 832 468.7 864 480.5C896 492.3 928 494.7 944 495.8L960 497L960 541L944 541C928 541 896 541 864 541C832 541 800 541 768 541C736 541 704 541 672 541C640 541 608 541 576 541C544 541 512 541 480 541C448 541 416 541 384 541C352 541 320 541 288 541C256 541 224 541 192 541C160 541 128 541 96 541C64 541 32 541 16 541L0 541Z" fill="#2cc5d0"></path><path d="M0 501L16 505.7C32 510.3 64 519.7 96 515.7C128 511.7 160 494.3 192 486.3C224 478.3 256 479.7 288 483.5C320 487.3 352 493.7 384 496C416 498.3 448 496.7 480 498.8C512 501 544 507 576 504.7C608 502.3 640 491.7 672 493.7C704 495.7 736 510.3 768 516.5C800 522.7 832 520.3 864 512.3C896 504.3 928 490.7 944 483.8L960 477L960 541L944 541C928 541 896 541 864 541C832 541 800 541 768 541C736 541 704 541 672 541C640 541 608 541 576 541C544 541 512 541 480 541C448 541 416 541 384 541C352 541 320 541 288 541C256 541 224 541 192 541C160 541 128 541 96 541C64 541 32 541 16 541L0 541Z" fill="#24b3c7"></path></svg>