<svg id="visual" viewBox="0 0 900 450" width="900" height="450" xmlns="http://www.w3.org/2000/svg" xmlns:xlink="http://www.w3.org/1999/xlink" version="1.1"><path d="M0 127L15 130.3C30 133.7 60 140.3 90 140.8C120 141.3 150 135.7 180 135.2C210 134.7 240 139.3 270 150.5C300 161.7 330 179.3 360 184.5C390 189.7 420 182.3 450 164.8C480 147.3 510 119.7 540 123.5C570 127.3 600 162.7 630 178.3C660 194 690 190 720 183C750 176 780 166 810 153.7C840 141.3 870 126.7 885 119.3L900 112L900 0L885 0C870 0 840 0 810 0C780 0 750 0 720 0C690 0 660 0 630 0C600 0 570 0 540 0C510 0 480 0 450 0C420 0 390 0 360 0C330 0 300 0 270 0C240 0 210 0 180 0C150 0 120 0 90 0C60 0 30 0 15 0L0 0Z" fill="#69fae0"></path><path d="M0 76L15 84.5C30 93 60 110 90 122.7C120 135.3 150 143.7 180 138.7C210 133.7 240 115.3 270 113.2C300 111 330 125 360 125C390 125 420 111 450 112.7C480 114.3 510 131.7 540 142.8C570 154 600 159 630 157.8C660 156.7 690 149.3 720 134.8C750 120.3 780 98.7 810 91.7C840 84.7 870 92.3 885 96.2L900 100L900 0L885 0C870 0 840 0 810 0C780 0 750 0 720 0C690 0 660 0 630 0C600 0 570 0 540 0C510 0 480 0 450 0C420 0 390 0 360 0C330 0 300 0 270 0C240 0 210 0 180 0C150 0 120 0 90 0C60 0 30 0 15 0L0 0Z" fill="#51e9dc"></path><path d="M0 85L15 82.8C30 80.7 60 76.3 90 84C120 91.7 150 111.3 180 116.3C210 121.3 240 111.7 270 100C300 88.3 330 74.7 360 68.5C390 62.3 420 63.7 450 69.3C480 75 510 85 540 93C570 101 600 107 630 110C660 113 690 113 720 104.2C750 95.3 780 77.7 810 73.7C840 69.7 870 79.3 885 84.2L900 89L900 0L885 0C870 0 840 0 810 0C780 0 750 0 720 0C690 0 660 0 630 0C600 0 570 0 540 0C510 0 480 0 450 0C420 0 390 0 360 0C330 0 300 0 270 0C240 0 210 0 180 0C150 0 120 0 90 0C60 0 30 0 15 0L0 0Z" fill="#3cd7d7"></path><path d="M0 52L15 54.3C30 56.7 60 61.3 90 62.2C120 63 150 60 180 57.2C210 54.3 240 51.7 270 52.2C300 52.7 330 56.3 360 63.5C390 70.7 420 81.3 450 84.2C480 87 510 82 540 73.8C570 65.7 600 54.3 630 57C660 59.7 690 76.3 720 75.8C750 75.3 780 57.7 810 47.8C840 38 870 36 885 35L900 34L900 0L885 0C870 0 840 0 810 0C780 0 750 0 720 0C690 0 660 0 630 0C600 0 570 0 540 0C510 0 480 0 450 0C420 0 390 0 360 0C330 0 300 0 270 0C240 0 210 0 180 0C150 0 120 0 90 0C60 0 30 0 15 0L0 0Z" fill="#2cc5d0"></path><path d="M0 31L15 27C30 23 60 15 90 18.3C120 21.7 150 36.3 180 43C210 49.7 240 48.3 270 45.2C300 42 330 37 360 35.2C390 33.3 420 34.7 450 32.8C480 31 510 26 540 28C570 30 600 39 630 37.3C660 35.7 690 23.3 720 18C750 12.7 780 14.3 810 20.8C840 27.3 870 38.7 885 44.3L900 50L900 0L885 0C870 0 840 0 810 0C780 0 750 0 720 0C690 0 660 0 630 0C600 0 570 0 540 0C510 0 480 0 450 0C420 0 390 0 360 0C330 0 300 0 270 0C240 0 210 0 180 0C150 0 120 0 90 0C60 0 30 0 15 0L0 0Z" fill="#24b3c7"></path></svg>