<svg id="visual" viewBox="0 0 960 540" width="960" height="540" xmlns="http://www.w3.org/2000/svg" xmlns:xlink="http://www.w3.org/1999/xlink" version="1.1"><path d="M0 153L16 157C32 161 64 169 96 169.5C128 170 160 163 192 162.3C224 161.7 256 167.3 288 180.7C320 194 352 215 384 221.2C416 227.3 448 218.7 480 197.8C512 177 544 144 576 148.7C608 153.3 640 195.7 672 214.5C704 233.3 736 228.7 768 220.2C800 211.7 832 199.3 864 184.5C896 169.7 928 152.3 944 143.7L960 135L960 0L944 0C928 0 896 0 864 0C832 0 800 0 768 0C736 0 704 0 672 0C640 0 608 0 576 0C544 0 512 0 480 0C448 0 416 0 384 0C352 0 320 0 288 0C256 0 224 0 192 0C160 0 128 0 96 0C64 0 32 0 16 0L0 0Z" fill="#69fae0"></path><path d="M0 91L16 101.3C32 111.7 64 132.3 96 147.5C128 162.7 160 172.3 192 166.3C224 160.3 256 138.7 288 136.2C320 133.7 352 150.3 384 150.3C416 150.3 448 133.7 480 135.7C512 137.7 544 158.3 576 171.7C608 185 640 191 672 189.7C704 188.3 736 179.7 768 162.2C800 144.7 832 118.3 864 109.8C896 101.3 928 110.7 944 115.3L960 120L960 0L944 0C928 0 896 0 864 0C832 0 800 0 768 0C736 0 704 0 672 0C640 0 608 0 576 0C544 0 512 0 480 0C448 0 416 0 384 0C352 0 320 0 288 0C256 0 224 0 192 0C160 0 128 0 96 0C64 0 32 0 16 0L0 0Z" fill="#51e9dc"></path><path d="M0 102L16 99.5C32 97 64 92 96 101.2C128 110.3 160 133.7 192 139.5C224 145.3 256 133.7 288 119.8C320 106 352 90 384 82.8C416 75.7 448 77.3 480 84C512 90.7 544 102.3 576 111.8C608 121.3 640 128.7 672 132.3C704 136 736 136 768 125.3C800 114.7 832 93.3 864 88.7C896 84 928 96 944 102L960 108L960 0L944 0C928 0 896 0 864 0C832 0 800 0 768 0C736 0 704 0 672 0C640 0 608 0 576 0C544 0 512 0 480 0C448 0 416 0 384 0C352 0 320 0 288 0C256 0 224 0 192 0C160 0 128 0 96 0C64 0 32 0 16 0L0 0Z" fill="#3cd7d7"></path><path d="M0 62L16 65C32 68 64 74 96 75.2C128 76.3 160 72.7 192 69C224 65.3 256 61.7 288 62.2C320 62.7 352 67.3 384 76C416 84.7 448 97.3 480 100.8C512 104.3 544 98.7 576 89C608 79.3 640 65.7 672 68.8C704 72 736 92 768 91.3C800 90.7 832 69.3 864 57.5C896 45.7 928 43.3 944 42.2L960 41L960 0L944 0C928 0 896 0 864 0C832 0 800 0 768 0C736 0 704 0 672 0C640 0 608 0 576 0C544 0 512 0 480 0C448 0 416 0 384 0C352 0 320 0 288 0C256 0 224 0 192 0C160 0 128 0 96 0C64 0 32 0 16 0L0 0Z" fill="#2cc5d0"></path><path d="M0 37L16 32.3C32 27.7 64 18.3 96 22.3C128 26.3 160 43.7 192 51.7C224 59.7 256 58.3 288 54.5C320 50.7 352 44.3 384 42C416 39.7 448 41.3 480 39.2C512 37 544 31 576 33.3C608 35.7 640 46.3 672 44.3C704 42.3 736 27.7 768 21.5C800 15.3 832 17.7 864 25.7C896 33.7 928 47.3 944 54.2L960 61L960 0L944 0C928 0 896 0 864 0C832 0 800 0 768 0C736 0 704 0 672 0C640 0 608 0 576 0C544 0 512 0 480 0C448 0 416 0 384 0C352 0 320 0 288 0C256 0 224 0 192 0C160 0 128 0 96 0C64 0 32 0 16 0L0 0Z" fill="#24b3c7"></path></svg>