<svg id="visual" viewBox="0 0 900 200" width="900" height="200" xmlns="http://www.w3.org/2000/svg" xmlns:xlink="http://www.w3.org/1999/xlink" version="1.1"><path d="M0 108L15 120.2C30 132.3 60 156.7 90 160.5C120 164.3 150 147.7 180 132.5C210 117.3 240 103.7 270 100.3C300 97 330 104 360 108C390 112 420 113 450 115.3C480 117.7 510 121.3 540 120.7C570 120 600 115 630 109.3C660 103.7 690 97.3 720 104.3C750 111.3 780 131.7 810 131.7C840 131.7 870 111.3 885 101.2L900 91L900 0L885 0C870 0 840 0 810 0C780 0 750 0 720 0C690 0 660 0 630 0C600 0 570 0 540 0C510 0 480 0 450 0C420 0 390 0 360 0C330 0 300 0 270 0C240 0 210 0 180 0C150 0 120 0 90 0C60 0 30 0 15 0L0 0Z" fill="#69fae0"></path><path d="M0 62L15 64C30 66 60 70 90 74.3C120 78.7 150 83.3 180 96.3C210 109.3 240 130.7 270 129.8C300 129 330 106 360 93.5C390 81 420 79 450 89.7C480 100.3 510 123.7 540 135.7C570 147.7 600 148.3 630 138.7C660 129 690 109 720 102.7C750 96.3 780 103.7 810 111.5C840 119.3 870 127.7 885 131.8L900 136L900 0L885 0C870 0 840 0 810 0C780 0 750 0 720 0C690 0 660 0 630 0C600 0 570 0 540 0C510 0 480 0 450 0C420 0 390 0 360 0C330 0 300 0 270 0C240 0 210 0 180 0C150 0 120 0 90 0C60 0 30 0 15 0L0 0Z" fill="#51e9dc"></path><path d="M0 101L15 103.5C30 106 60 111 90 112.8C120 114.7 150 113.3 180 102.2C210 91 240 70 270 65C300 60 330 71 360 76.3C390 81.7 420 81.3 450 84.3C480 87.3 510 93.7 540 88.2C570 82.7 600 65.3 630 62.2C660 59 690 70 720 76.8C750 83.7 780 86.3 810 85C840 83.7 870 78.3 885 75.7L900 73L900 0L885 0C870 0 840 0 810 0C780 0 750 0 720 0C690 0 660 0 630 0C600 0 570 0 540 0C510 0 480 0 450 0C420 0 390 0 360 0C330 0 300 0 270 0C240 0 210 0 180 0C150 0 120 0 90 0C60 0 30 0 15 0L0 0Z" fill="#3cd7d7"></path><path d="M0 67L15 60.2C30 53.3 60 39.7 90 40.8C120 42 150 58 180 60.2C210 62.3 240 50.7 270 49.3C300 48 330 57 360 61.3C390 65.7 420 65.3 450 62.3C480 59.3 510 53.7 540 50.3C570 47 600 46 630 52.2C660 58.3 690 71.7 720 73.8C750 76 780 67 810 64.5C840 62 870 66 885 68L900 70L900 0L885 0C870 0 840 0 810 0C780 0 750 0 720 0C690 0 660 0 630 0C600 0 570 0 540 0C510 0 480 0 450 0C420 0 390 0 360 0C330 0 300 0 270 0C240 0 210 0 180 0C150 0 120 0 90 0C60 0 30 0 15 0L0 0Z" fill="#2cc5d0"></path><path d="M0 40L15 41.3C30 42.7 60 45.3 90 41C120 36.7 150 25.3 180 22.2C210 19 240 24 270 25.5C300 27 330 25 360 25.7C390 26.3 420 29.7 450 27.5C480 25.3 510 17.7 540 14C570 10.3 600 10.7 630 14.2C660 17.7 690 24.3 720 24.3C750 24.3 780 17.7 810 19.8C840 22 870 33 885 38.5L900 44L900 0L885 0C870 0 840 0 810 0C780 0 750 0 720 0C690 0 660 0 630 0C600 0 570 0 540 0C510 0 480 0 450 0C420 0 390 0 360 0C330 0 300 0 270 0C240 0 210 0 180 0C150 0 120 0 90 0C60 0 30 0 15 0L0 0Z" fill="#24b3c7"></path></svg>